<svg xmlns="http://www.w3.org/2000/svg" class="icon icon-accordion icon-gift" viewBox="0 0 20 20" fill="none">
<path d="M17 9H1M9 1V17M9.8 9C9.8 9.84869 10.1371 10.6626 10.7373 11.2627C11.3374 11.8629 12.1513 12.2 13 12.2M8.2 9C8.2 9.84869 7.86286 10.6626 7.26274 11.2627C6.66263 11.8629 5.84869 12.2 5 12.2" stroke="#292929" stroke-linecap="round"/>
<path d="M8.99991 7.42525C9.00036 6.84601 9.19423 6.2835 9.55075 5.82698C9.90727 5.37045 10.406 5.04605 10.9679 4.90525C12.2503 4.58525 13.4127 5.74685 13.0919 7.03005C12.9511 7.59192 12.6267 8.09069 12.1702 8.44721C11.7137 8.80374 11.1512 8.9976 10.5719 8.99805H8.99991M8.99991 7.42525V8.99805M8.99991 7.42525C8.99946 6.84601 8.80559 6.2835 8.44907 5.82698C8.09255 5.37045 7.59378 5.04605 7.03191 4.90525C5.74951 4.58525 4.58711 5.74685 4.90791 7.03005C5.04871 7.59192 5.37311 8.09069 5.82963 8.44721C6.28616 8.80374 6.84866 8.9976 7.42791 8.99805H8.99991" stroke="#292929"/>
<path d="M1 9C1 5.2288 1 3.3432 2.1712 2.1712C3.344 1 5.2288 1 9 1C12.7712 1 14.6568 1 15.828 2.1712C17 3.344 17 5.2288 17 9C17 12.7712 17 14.6568 15.828 15.828C14.6576 17 12.7712 17 9 17C5.2288 17 3.3432 17 2.1712 15.828C1 14.6576 1 12.7712 1 9Z" stroke="#292929"/>
</svg>