<svg width="20" height="20" viewBox="0 0 20 20" fill="none" xmlns="http://www.w3.org/2000/svg">
<path d="M17.7883 16.0552C16.4879 13.8069 14.4838 12.1948 12.145 11.4306C13.3019 10.7419 14.2007 9.69252 14.7034 8.44357C15.2062 7.19462 15.285 5.81518 14.9279 4.51707C14.5707 3.21897 13.7974 2.07399 12.7265 1.25797C11.6557 0.441946 10.3466 0 9.00022 0C7.65388 0 6.34477 0.441946 5.27392 1.25797C4.20307 2.07399 3.42969 3.21897 3.07255 4.51707C2.71542 5.81518 2.79426 7.19462 3.29699 8.44357C3.79972 9.69252 4.69853 10.7419 5.85539 11.4306C3.51662 12.194 1.51257 13.8061 0.212117 16.0552C0.164427 16.133 0.132794 16.2195 0.119086 16.3097C0.105377 16.3999 0.10987 16.4919 0.1323 16.5803C0.154729 16.6687 0.194641 16.7517 0.24968 16.8245C0.304719 16.8972 0.373771 16.9582 0.45276 17.0038C0.53175 17.0495 0.619078 17.0788 0.709592 17.0901C0.800106 17.1015 0.891972 17.0946 0.97977 17.0698C1.06757 17.0451 1.14952 17.003 1.22079 16.946C1.29206 16.8891 1.35121 16.8185 1.39474 16.7383C3.00344 13.9581 5.84685 12.2981 9.00022 12.2981C12.1536 12.2981 14.997 13.9581 16.6057 16.7383C16.6492 16.8185 16.7084 16.8891 16.7796 16.946C16.8509 17.003 16.9329 17.0451 17.0207 17.0698C17.1085 17.0946 17.2003 17.1015 17.2908 17.0901C17.3814 17.0788 17.4687 17.0495 17.5477 17.0038C17.6267 16.9582 17.6957 16.8972 17.7508 16.8245C17.8058 16.7517 17.8457 16.6687 17.8681 16.5803C17.8906 16.4919 17.8951 16.3999 17.8813 16.3097C17.8676 16.2195 17.836 16.133 17.7883 16.0552ZM4.21851 6.15024C4.21851 5.2045 4.49895 4.28001 5.02437 3.49366C5.54979 2.70731 6.29659 2.09443 7.17034 1.73251C8.04408 1.3706 9.00552 1.2759 9.93308 1.4604C10.8606 1.64491 11.7127 2.10032 12.3814 2.76906C13.0501 3.43779 13.5055 4.28981 13.69 5.21737C13.8746 6.14493 13.7799 7.10637 13.4179 7.98012C13.056 8.85386 12.4431 9.60066 11.6568 10.1261C10.8704 10.6515 9.94595 10.9319 9.00022 10.9319C7.73244 10.9306 6.51699 10.4264 5.62054 9.52992C4.72408 8.63347 4.21986 7.41801 4.21851 6.15024Z" fill="#292929"/>
</svg>
