<svg width="20" height="20" viewBox="0 0 20 20" fill="none" xmlns="http://www.w3.org/2000/svg">
<path d="M17.843 3.5721C17.7804 3.49722 17.7022 3.437 17.6138 3.39568C17.5254 3.35436 17.429 3.33295 17.3314 3.33296H3.88957L3.38296 0.547439C3.35505 0.393846 3.27413 0.254918 3.15429 0.154875C3.03445 0.0548329 2.8833 2.25618e-05 2.7272 0H0.666593C0.489801 0 0.320251 0.0702301 0.19524 0.19524C0.0702301 0.320251 0 0.489801 0 0.666593C0 0.843384 0.0702301 1.01293 0.19524 1.13794C0.320251 1.26296 0.489801 1.33319 0.666593 1.33319H2.16643L4.29619 13.0227C4.35893 13.3694 4.51213 13.6933 4.74031 13.9618C4.42538 14.2559 4.19808 14.6316 4.0836 15.047C3.96911 15.4624 3.97193 15.9015 4.09174 16.3154C4.21154 16.7294 4.44365 17.102 4.76233 17.3921C5.081 17.6822 5.47379 17.8784 5.89714 17.9588C6.32049 18.0393 6.75786 18.001 7.16075 17.848C7.56363 17.6951 7.91629 17.4336 8.17963 17.0925C8.44296 16.7514 8.60667 16.344 8.65261 15.9155C8.69855 15.4871 8.62493 15.0542 8.4399 14.665H12.2245C12.0753 14.9772 11.9982 15.3189 11.9987 15.6649C11.9987 16.1264 12.1355 16.5774 12.3919 16.9611C12.6482 17.3448 13.0126 17.6438 13.4389 17.8204C13.8652 17.997 14.3343 18.0432 14.7869 17.9532C15.2395 17.8631 15.6552 17.6409 15.9815 17.3147C16.3078 16.9884 16.53 16.5727 16.62 16.1201C16.71 15.6675 16.6638 15.1984 16.4872 14.7721C16.3106 14.3458 16.0116 13.9814 15.6279 13.725C15.2443 13.4687 14.7932 13.3319 14.3317 13.3319H6.26347C6.10736 13.3318 5.95622 13.277 5.83638 13.177C5.71654 13.0769 5.63562 12.938 5.60771 12.7844L5.34357 11.3321H15.0092C15.4775 11.332 15.9309 11.1676 16.2904 10.8674C16.65 10.5673 16.8927 10.1505 16.9764 9.68976L17.9897 4.11871C18.0068 4.02242 18.0026 3.92353 17.9772 3.82907C17.9519 3.73461 17.9061 3.64688 17.843 3.5721ZM7.33252 15.6649C7.33252 15.8627 7.27388 16.056 7.16401 16.2204C7.05414 16.3849 6.89798 16.513 6.71527 16.5887C6.53257 16.6644 6.33152 16.6842 6.13756 16.6456C5.9436 16.607 5.76544 16.5118 5.6256 16.372C5.48576 16.2321 5.39053 16.054 5.35195 15.86C5.31337 15.666 5.33317 15.465 5.40885 15.2823C5.48453 15.0996 5.61269 14.9434 5.77712 14.8335C5.94155 14.7237 6.13487 14.665 6.33263 14.665C6.59782 14.665 6.85214 14.7704 7.03966 14.9579C7.22717 15.1454 7.33252 15.3997 7.33252 15.6649ZM15.3316 15.6649C15.3316 15.8627 15.273 16.056 15.1631 16.2204C15.0533 16.3849 14.8971 16.513 14.7144 16.5887C14.5317 16.6644 14.3306 16.6842 14.1367 16.6456C13.9427 16.607 13.7646 16.5118 13.6247 16.372C13.4849 16.2321 13.3896 16.054 13.3511 15.86C13.3125 15.666 13.3323 15.465 13.408 15.2823C13.4836 15.0996 13.6118 14.9434 13.7762 14.8335C13.9407 14.7237 14.134 14.665 14.3317 14.665C14.5969 14.665 14.8513 14.7704 15.0388 14.9579C15.2263 15.1454 15.3316 15.3997 15.3316 15.6649ZM15.6649 9.45145C15.6369 9.60547 15.5557 9.74472 15.4353 9.84482C15.3149 9.94491 15.1632 9.99945 15.0067 9.99889H5.1011L4.13204 4.66615H16.5323L15.6649 9.45145Z" fill="#292929"/>
</svg>
